<svg width="300" height="96" viewBox="0 0 300 96" fill="none" xmlns="http://www.w3.org/2000/svg">
<path fill-rule="evenodd" clip-rule="evenodd" d="M92.5005 14.5173H101.503V42.6222C101.503 43.3923 102.268 44.0185 103.037 44.0185H106.705C107.475 44.0185 108.058 43.3932 108.058 42.6222V14.5173H117.287C118.056 14.5173 118.62 13.8035 118.62 13.0334V9.52144C118.62 8.75227 118.056 8.32617 117.287 8.32617H92.5005C91.7304 8.32617 90.9419 8.75317 90.9419 9.52234V13.0344C90.9419 13.8036 91.7304 14.5182 92.5005 14.5173Z" fill="white"/>
<path fill-rule="evenodd" clip-rule="evenodd" d="M144.754 21.5919C144.754 22.4948 144.595 23.7676 143.971 24.2665C143.76 24.4353 142.783 25.0799 139.399 25.0799H130.185V14.5183H139.399C142.86 14.5183 143.808 15.0015 144.008 15.1629C144.471 15.5373 144.753 16.418 144.753 17.7258L144.754 21.5919ZM148.676 10.1818C147.008 8.8657 144.212 8.3252 140.134 8.3252H125.196C124.427 8.3252 123.63 8.7522 123.63 9.52136V42.6222C123.63 43.3923 124.427 44.0185 125.196 44.0185H128.841C129.611 44.0185 130.186 43.3932 130.186 42.6222V31.271H140.58C142.964 31.271 143.745 31.7497 143.958 31.9876C144.188 32.2449 144.755 33.0676 144.755 35.7966V42.6213C144.755 43.3914 145.322 44.0176 146.092 44.0176H149.914C150.685 44.0176 151.309 43.3923 151.309 42.6213V34.6622C151.309 32.2597 150.921 30.4991 150.127 29.2771C149.824 28.8105 149.445 28.3973 148.994 28.0394C149.372 27.7295 149.706 27.3727 149.993 26.9688C150.865 25.7468 151.309 24.1014 151.309 22.0798V17.0785C151.308 13.8146 150.423 11.5596 148.676 10.1818Z" fill="white"/>
<path fill-rule="evenodd" clip-rule="evenodd" d="M176.47 29.4496H166.129L171.281 15.4239L176.47 29.4496ZM187.729 43.4182C187.989 43.0446 188.05 42.566 187.892 42.1381L175.599 9.13499C175.395 8.58901 174.875 8.3252 174.292 8.3252H168.268C167.684 8.3252 167.162 8.58987 166.96 9.13769L154.733 42.1888C154.576 42.6167 154.636 43.0714 154.897 43.4449C155.158 43.8185 155.585 44.0185 156.04 44.0185H159.82C160.406 44.0185 160.927 43.6985 161.129 43.1489L163.886 35.6407H178.681L181.5 43.1572C181.703 43.7022 182.223 44.0185 182.805 44.0185H186.585C187.041 44.0185 187.469 43.7935 187.729 43.4182Z" fill="white"/>
<path fill-rule="evenodd" clip-rule="evenodd" d="M219.475 8.3252H215.784C215.014 8.3252 214.251 8.7522 214.251 9.52136L214.252 31.2415C214.252 33.7556 214.163 34.878 214.033 35.377C213.878 35.9635 213.668 36.4062 213.328 36.7179C212.9 37.1034 212.408 37.3792 211.793 37.5396C211.303 37.666 210.239 37.8283 207.871 37.8283H204.402C202.051 37.8283 200.981 37.6669 200.497 37.5405C199.888 37.3819 199.383 37.1118 198.966 36.7355C198.596 36.3952 198.329 35.9386 198.168 35.3475C198.033 34.8513 197.863 33.7353 197.863 31.2433V9.52328C197.863 8.75411 197.258 8.32801 196.489 8.32801H192.799C192.029 8.32801 191.308 8.75501 191.308 9.52418V31.6879C191.308 36.3398 192.307 39.5354 194.264 41.4934C196.221 43.4504 199.483 44.3856 204.135 44.3856H208.137C212.788 44.3856 215.97 43.4505 217.928 41.4944C219.886 39.5355 220.806 36.3407 220.806 31.6888V9.52508C220.807 8.75223 220.245 8.32612 219.475 8.3252Z" fill="white"/>
<path fill-rule="evenodd" clip-rule="evenodd" d="M261.872 8.3252H255.803C255.223 8.3252 254.705 8.58441 254.499 9.12486L244.57 35.1686L234.54 9.14512C234.334 8.60652 233.816 8.3252 233.239 8.3252H227.216C226.446 8.3252 225.818 8.7522 225.818 9.52136V42.6222C225.818 43.3923 226.444 44.0185 227.215 44.0185H230.861C231.63 44.0185 232.009 43.3932 232.009 42.6222V20.1883L240.861 43.1185C241.067 43.6598 241.707 44.0185 242.286 44.0185H246.8C247.379 44.0185 247.867 43.6607 248.073 43.1194L256.775 20.1883V42.6222C256.775 43.3923 257.455 44.0185 258.226 44.0185H261.873C262.642 44.0185 263.331 43.3932 263.331 42.6222V9.52136C263.33 8.7522 262.641 8.32612 261.872 8.3252Z" fill="white"/>
<path fill-rule="evenodd" clip-rule="evenodd" d="M288.49 29.4496H278.151L283.304 15.4239L288.49 29.4496ZM299.912 42.1371L287.62 9.13499C287.417 8.58901 286.895 8.3252 286.312 8.3252H280.289C279.704 8.3252 279.183 8.58987 278.981 9.13769L266.754 42.1888C266.596 42.6167 266.657 43.0714 266.918 43.4449C267.178 43.8185 267.605 44.0185 268.061 44.0185H271.841C272.426 44.0185 272.95 43.6985 273.15 43.1489L275.905 35.6407H290.702L293.52 43.1572C293.724 43.7032 294.244 44.0185 294.827 44.0185H298.606C299.062 44.0185 299.489 43.7935 299.75 43.4182C300.011 43.0456 300.072 42.5659 299.912 42.1371Z" fill="white"/>
<path fill-rule="evenodd" clip-rule="evenodd" d="M118.62 55.698V52.1859C118.62 51.4149 118.056 50.6975 117.287 50.6975H92.5005C91.7304 50.6975 90.9419 51.4149 90.9419 52.1859V55.698C90.9419 56.4672 91.7304 56.8896 92.5005 56.8896H101.503V85.2868C101.503 86.0559 102.268 86.7542 103.037 86.7542H106.705C107.475 86.7542 108.058 86.057 108.058 85.2878V56.8905H117.287C118.056 56.8895 118.62 56.4672 118.62 55.698Z" fill="white"/>
<path fill-rule="evenodd" clip-rule="evenodd" d="M136.561 72.1861H126.22L131.373 58.1604L136.561 72.1861ZM135.689 51.6529C135.487 51.1069 134.965 50.6975 134.383 50.6975H128.359C127.775 50.6975 127.253 51.1079 127.052 51.6548L114.825 84.7796C114.667 85.2076 114.729 85.7333 114.989 86.1086C115.25 86.4831 115.677 86.7533 116.132 86.7533H119.912C120.497 86.7533 121.021 86.4342 121.221 85.8845L123.977 78.3764H138.773L141.592 85.8928C141.795 86.4379 142.317 86.7533 142.898 86.7533H146.677C147.133 86.7533 147.561 86.4941 147.821 86.1197C148.081 85.7452 148.142 85.2241 147.983 84.7962L135.689 51.6529Z" fill="white"/>
<path fill-rule="evenodd" clip-rule="evenodd" d="M157.596 56.8896H166.744C169.858 56.8896 170.494 57.4798 170.616 57.5784C171.001 57.8819 171.07 58.7636 171.07 59.8777V64.7453C171.07 65.8437 170.988 66.5724 170.586 66.8905C170.403 67.0335 169.72 67.4512 166.743 67.4512H157.595V56.8896H157.596ZM175.346 52.7007C173.676 51.3837 170.869 50.6975 166.788 50.6975H152.849C152.08 50.6975 151.403 51.4149 151.403 52.1859V85.2868C151.403 86.0559 152.08 86.7542 152.849 86.7542H156.495C157.265 86.7542 157.595 86.057 157.595 85.2878V73.6432H166.788C170.902 73.6432 173.72 73.0918 175.376 71.7637C177.101 70.3785 177.99 68.0802 177.99 64.7462V59.7439C177.99 56.4782 177.091 54.0767 175.346 52.7007Z" fill="white"/>
<path fill-rule="evenodd" clip-rule="evenodd" d="M207.374 50.6975H184.167C183.397 50.6975 183.001 51.4149 183.001 52.1859V85.2868C183.001 86.0559 183.397 86.7542 184.167 86.7542H207.375C208.145 86.7542 208.859 86.057 208.859 85.2878V81.8201C208.859 81.05 208.144 80.5639 207.374 80.5639H189.192V71.4585H206.82C207.591 71.4585 208.131 70.6736 208.131 69.9044V66.5262C208.131 65.7561 207.59 65.2683 206.819 65.2683H189.191V56.8923H207.373C208.143 56.8923 208.857 56.4699 208.857 55.7007V52.1879C208.858 51.415 208.144 50.6975 207.374 50.6975Z" fill="white"/>
<path fill-rule="evenodd" clip-rule="evenodd" d="M48.7263 9.50754V31.035L64.0428 22.1914C68.5904 19.5658 74.406 21.1244 77.0316 25.6721C79.6563 30.2188 78.0986 36.0355 73.5511 38.6612L58.2336 47.5047L73.6774 56.4211C78.2241 59.0468 79.7827 64.8625 77.1571 69.4102C74.5324 73.9578 68.7158 75.5165 64.1682 72.8908L48.7245 63.9745V85.5746C48.7245 90.825 44.4665 95.0832 39.2162 95.0832C33.9659 95.0832 29.708 90.825 29.708 85.5746V63.9745L14.2641 72.8908C9.71659 75.5165 3.90098 73.9578 1.27537 69.4102C-1.35024 64.8634 0.208349 59.0468 4.75498 56.4211L20.1987 47.5047L4.88129 38.6612C0.333739 36.0364 -1.22391 30.2197 1.40078 25.6721C4.02547 21.1244 9.84206 19.5667 14.3896 22.1914L29.7061 31.035L47.1954 41.0867C47.3328 41.1633 47.4905 41.2075 47.6584 41.2075C48.1831 41.2075 48.6092 40.7814 48.6092 40.2567C48.6092 39.8988 48.4109 39.5871 48.1186 39.4239L29.7061 25.2939V9.50855C29.7061 4.25813 33.9641 0 39.2144 0C44.4647 0 48.7263 4.25711 48.7263 9.50754Z" fill="#2884D9"/>
</svg>
